<?xml version="1.0" standalone="no"?>
<!DOCTYPE svg PUBLIC "-//W3C//DTD SVG 20010904//EN"
 "http://www.w3.org/TR/2001/REC-SVG-20010904/DTD/svg10.dtd">
<svg version="1.0" xmlns="http://www.w3.org/2000/svg"
 width="392.000000pt" height="392.000000pt" viewBox="0 0 392.000000 392.000000"
 preserveAspectRatio="xMidYMid meet">
<metadata>
Created by potrace 1.14, written by Peter Selinger 2001-2017
</metadata>
<g transform="translate(0.000000,392.000000) scale(0.100000,-0.100000)"
fill="#000000" stroke="none">
<path d="M1553 2585 c-121 -33 -205 -101 -258 -208 -46 -93 -61 -177 -46 -259
6 -34 9 -63 7 -66 -3 -2 -144 0 -315 4 l-311 7 0 231 c0 127 -4 237 -9 244 -5
9 -31 12 -92 10 l-84 -3 -3 -529 c-1 -382 1 -533 9 -542 15 -18 150 -19 167
-2 9 9 12 77 12 245 l0 233 364 0 c440 0 414 -8 375 122 -51 167 14 326 162
393 53 23 71 27 138 23 86 -4 142 -26 205 -83 22 -19 48 -35 59 -35 11 0 38
16 60 36 156 141 385 108 483 -71 18 -32 36 -77 40 -100 8 -51 20 -65 53 -65
47 0 55 12 48 73 -15 151 -134 290 -286 338 -114 35 -237 18 -344 -47 -52 -32
-60 -34 -75 -21 -27 23 -103 59 -157 73 -63 17 -135 17 -202 -1z"/>
<path d="M232 2448 c-17 -17 -18 -868 0 -886 13 -13 136 -16 156 -4 10 7 12
104 10 453 l-3 444 -75 3 c-50 2 -79 -1 -88 -10z"/>
<path d="M11 2346 c-8 -9 -11 -109 -9 -347 l3 -334 85 0 85 0 3 339 c2 265 -1
341 -10 348 -22 14 -144 9 -157 -6z"/>
</g>
</svg>
